# xmcd
#
# Track frame offsets:
#	150
#	25476
#	49563
#	82903
#	100104
#	125156
#	141207
#	161226
#	202144
#	216551
#	243913
#	270555
#	290337
#	305230
#	326550
#
# Disc length: 4682
#
# Revision: 1
# Processed by: cddbd v1.5.1PL0 Copyright (c) Steve Scherf et al.
# Submitted via: CDex 1.50
# Normalized: r0:TDELIM( - )
#
DISCID=e812480f
DTITLE=New Age - MTV New Age
DYEAR=2001
DGENRE=New Age
TTITLE0=2002 - Elysian Fields
TTITLE1=Anastasi - The Year Of Living Dangereously
TTITLE2=Ayman - Seduced By An Angel
TTITLE3=Back To Earth - The Hiddensmile Of Nalad
TTITLE4=Bliss - Silence
TTITLE5=Christopher Franke - Flower Hill Trail
TTITLE6=Clara Ponty - Crystaline
TTITLE7=Egil Fylling - Anahata
TTITLE8=Frank Steiner Jr. - Wind
TTITLE9=Hiary Stagg - Thinking Of You
TTITLE10=Kevin Kern - Kristen's Serenade
TTITLE11=Mars Lasar - Sensuality
TTITLE12=Nicholas Gunn - Return Of The Butterfly
TTITLE13=Richard Burmer - Across The View
TTITLE14=Shastro - Kinana's Lullaby
EXTD=YEAR: 2001
EXTT0=
EXTT1=
EXTT2=
EXTT3=
EXTT4=
EXTT5=
EXTT6=
EXTT7=
EXTT8=
EXTT9=
EXTT10=
EXTT11=
EXTT12=
EXTT13=
EXTT14=
PLAYORDER=
